<mxfile host="app.diagrams.net" agent="Mozilla/5.0 (Windows NT 10.0; Win64; x64; rv:139.0) Gecko/20100101 Firefox/139.0" version="27.1.6" pages="2">
  <diagram name="Page-1" id="UhGrVpDiVibqinIa7zeh">
    <mxGraphModel dx="1310" dy="785" grid="1" gridSize="10" guides="1" tooltips="1" connect="1" arrows="1" fold="1" page="1" pageScale="1" pageWidth="3300" pageHeight="4681" math="0" shadow="0">
      <root>
        <mxCell id="0" />
        <mxCell id="1" parent="0" />
        <mxCell id="dpm7BbhjtCY3NDO2OxrM-5" style="edgeStyle=orthogonalEdgeStyle;rounded=0;orthogonalLoop=1;jettySize=auto;html=1;exitX=0;exitY=0.5;exitDx=0;exitDy=0;entryX=1;entryY=0.5;entryDx=0;entryDy=0;" parent="1" source="dpm7BbhjtCY3NDO2OxrM-1" target="dpm7BbhjtCY3NDO2OxrM-4" edge="1">
          <mxGeometry relative="1" as="geometry" />
        </mxCell>
        <mxCell id="dpm7BbhjtCY3NDO2OxrM-1" value="data:text&#xa;symptoms" style="rectangle;fillColor=#fff2cc;strokeColor=#d6b656;" parent="1" name="data" vertex="1">
          <mxGeometry x="1220" y="110" width="100" height="50" as="geometry" />
        </mxCell>
        <mxCell id="dpm7BbhjtCY3NDO2OxrM-10" style="edgeStyle=orthogonalEdgeStyle;rounded=0;orthogonalLoop=1;jettySize=auto;html=1;exitX=0;exitY=0.5;exitDx=0;exitDy=0;entryX=1;entryY=0.5;entryDx=0;entryDy=0;" parent="1" source="dpm7BbhjtCY3NDO2OxrM-2" target="dpm7BbhjtCY3NDO2OxrM-8" edge="1">
          <mxGeometry relative="1" as="geometry" />
        </mxCell>
        <mxCell id="dpm7BbhjtCY3NDO2OxrM-2" value="data:text&#xa;symptoms cleaned" style="rectangle;fillColor=#fff2cc;strokeColor=#d6b656;" parent="1" name="data" vertex="1">
          <mxGeometry x="940" y="200" width="100" height="50" as="geometry" />
        </mxCell>
        <mxCell id="dpm7BbhjtCY3NDO2OxrM-7" style="edgeStyle=orthogonalEdgeStyle;rounded=0;orthogonalLoop=1;jettySize=auto;html=1;exitX=0.5;exitY=1;exitDx=0;exitDy=0;entryX=1;entryY=0.5;entryDx=0;entryDy=0;" parent="1" source="dpm7BbhjtCY3NDO2OxrM-4" target="dpm7BbhjtCY3NDO2OxrM-2" edge="1">
          <mxGeometry relative="1" as="geometry" />
        </mxCell>
        <mxCell id="dpm7BbhjtCY3NDO2OxrM-4" value="transform" style="rounded=1;whiteSpace=wrap;html=1;arcSize=50;fillColor=#f8cecc;strokeColor=#b85450;" parent="1" name="transform" vertex="1">
          <mxGeometry x="1060" y="110" width="100" height="50" as="geometry" />
        </mxCell>
        <mxCell id="dpm7BbhjtCY3NDO2OxrM-11" style="edgeStyle=orthogonalEdgeStyle;rounded=0;orthogonalLoop=1;jettySize=auto;html=1;exitX=0;exitY=0.5;exitDx=0;exitDy=0;entryX=1;entryY=0.5;entryDx=0;entryDy=0;" parent="1" source="dpm7BbhjtCY3NDO2OxrM-8" target="dpm7BbhjtCY3NDO2OxrM-9" edge="1">
          <mxGeometry relative="1" as="geometry" />
        </mxCell>
        <mxCell id="dpm7BbhjtCY3NDO2OxrM-8" value="transform" style="rounded=1;whiteSpace=wrap;html=1;arcSize=50;fillColor=#f8cecc;strokeColor=#b85450;" parent="1" name="transform" vertex="1">
          <mxGeometry x="770" y="200" width="100" height="50" as="geometry" />
        </mxCell>
        <mxCell id="dpm7BbhjtCY3NDO2OxrM-13" style="edgeStyle=orthogonalEdgeStyle;rounded=0;orthogonalLoop=1;jettySize=auto;html=1;exitX=0.5;exitY=1;exitDx=0;exitDy=0;entryX=0.5;entryY=0;entryDx=0;entryDy=0;" parent="1" source="dpm7BbhjtCY3NDO2OxrM-9" target="dpm7BbhjtCY3NDO2OxrM-12" edge="1">
          <mxGeometry relative="1" as="geometry" />
        </mxCell>
        <mxCell id="dpm7BbhjtCY3NDO2OxrM-9" value="data:text&#xa;tokens" style="rectangle;fillColor=#fff2cc;strokeColor=#d6b656;" parent="1" name="data" vertex="1">
          <mxGeometry x="590" y="200" width="100" height="50" as="geometry" />
        </mxCell>
        <mxCell id="dpm7BbhjtCY3NDO2OxrM-15" style="edgeStyle=orthogonalEdgeStyle;rounded=0;orthogonalLoop=1;jettySize=auto;html=1;exitX=0.5;exitY=1;exitDx=0;exitDy=0;entryX=0.5;entryY=0;entryDx=0;entryDy=0;" parent="1" source="dpm7BbhjtCY3NDO2OxrM-12" target="dpm7BbhjtCY3NDO2OxrM-14" edge="1">
          <mxGeometry relative="1" as="geometry" />
        </mxCell>
        <mxCell id="dpm7BbhjtCY3NDO2OxrM-12" value="transform:embed" style="rounded=1;whiteSpace=wrap;html=1;arcSize=50;fillColor=#f8cecc;strokeColor=#b85450;" parent="1" name="transform" vertex="1">
          <mxGeometry x="590" y="290" width="100" height="50" as="geometry" />
        </mxCell>
        <mxCell id="dpm7BbhjtCY3NDO2OxrM-17" style="edgeStyle=orthogonalEdgeStyle;rounded=0;orthogonalLoop=1;jettySize=auto;html=1;exitX=1;exitY=0.5;exitDx=0;exitDy=0;entryX=0;entryY=0.5;entryDx=0;entryDy=0;" parent="1" source="dpm7BbhjtCY3NDO2OxrM-14" target="dpm7BbhjtCY3NDO2OxrM-16" edge="1">
          <mxGeometry relative="1" as="geometry" />
        </mxCell>
        <mxCell id="dpm7BbhjtCY3NDO2OxrM-19" style="edgeStyle=orthogonalEdgeStyle;rounded=0;orthogonalLoop=1;jettySize=auto;html=1;exitX=0.5;exitY=1;exitDx=0;exitDy=0;entryX=0;entryY=0.5;entryDx=0;entryDy=0;" parent="1" source="dpm7BbhjtCY3NDO2OxrM-14" target="dpm7BbhjtCY3NDO2OxrM-18" edge="1">
          <mxGeometry relative="1" as="geometry" />
        </mxCell>
        <mxCell id="dpm7BbhjtCY3NDO2OxrM-14" value="data:text&#xa;feature vectors &#xa;symptoms" style="rectangle;fillColor=#fff2cc;strokeColor=#d6b656;" parent="1" name="data" vertex="1">
          <mxGeometry x="590" y="390" width="100" height="50" as="geometry" />
        </mxCell>
        <mxCell id="dpm7BbhjtCY3NDO2OxrM-21" style="edgeStyle=orthogonalEdgeStyle;rounded=0;orthogonalLoop=1;jettySize=auto;html=1;exitX=1;exitY=0.5;exitDx=0;exitDy=0;entryX=0;entryY=0.5;entryDx=0;entryDy=0;" parent="1" source="dpm7BbhjtCY3NDO2OxrM-16" target="dpm7BbhjtCY3NDO2OxrM-20" edge="1">
          <mxGeometry relative="1" as="geometry" />
        </mxCell>
        <mxCell id="dpm7BbhjtCY3NDO2OxrM-16" value="generate:train" style="rounded=1;whiteSpace=wrap;html=1;arcSize=50;fillColor=#e1d5e7;strokeColor=#9673a6;" parent="1" name="generate:train" vertex="1">
          <mxGeometry x="770" y="310" width="100" height="50" as="geometry" />
        </mxCell>
        <mxCell id="dpm7BbhjtCY3NDO2OxrM-18" value="infer:deduce" style="rounded=1;whiteSpace=wrap;html=1;arcSize=50;fillColor=#bac8d3;strokeColor=#23445d;" parent="1" name="infer:deduce" vertex="1">
          <mxGeometry x="770" y="440" width="100" height="50" as="geometry" />
        </mxCell>
        <mxCell id="dpm7BbhjtCY3NDO2OxrM-30" style="edgeStyle=orthogonalEdgeStyle;rounded=0;orthogonalLoop=1;jettySize=auto;html=1;entryX=0;entryY=0.5;entryDx=0;entryDy=0;" parent="1" source="dpm7BbhjtCY3NDO2OxrM-20" target="dpm7BbhjtCY3NDO2OxrM-24" edge="1">
          <mxGeometry relative="1" as="geometry">
            <Array as="points">
              <mxPoint x="1070" y="335" />
              <mxPoint x="1070" y="395" />
            </Array>
          </mxGeometry>
        </mxCell>
        <mxCell id="dpm7BbhjtCY3NDO2OxrM-20" value="model:semantic&#xa;Support Vector &#xa;Machine" style="shape=hexagon;perimeter=hexagonPerimeter2;fillColor=#b0e3e6;strokeColor=#0e8088;" parent="1" name="model" vertex="1">
          <mxGeometry x="930" y="310" width="120" height="50" as="geometry" />
        </mxCell>
        <mxCell id="dpm7BbhjtCY3NDO2OxrM-29" style="edgeStyle=orthogonalEdgeStyle;rounded=0;orthogonalLoop=1;jettySize=auto;html=1;entryX=0;entryY=0.5;entryDx=0;entryDy=0;" parent="1" source="dpm7BbhjtCY3NDO2OxrM-22" target="dpm7BbhjtCY3NDO2OxrM-24" edge="1">
          <mxGeometry relative="1" as="geometry">
            <Array as="points">
              <mxPoint x="1070" y="465" />
              <mxPoint x="1070" y="395" />
            </Array>
          </mxGeometry>
        </mxCell>
        <mxCell id="dpm7BbhjtCY3NDO2OxrM-22" value="data&#xa;possible diagnosis&#xa;with likelihood" style="rectangle;fillColor=#fff2cc;strokeColor=#d6b656;" parent="1" name="data" vertex="1">
          <mxGeometry x="940" y="440" width="100" height="50" as="geometry" />
        </mxCell>
        <mxCell id="dpm7BbhjtCY3NDO2OxrM-32" style="edgeStyle=orthogonalEdgeStyle;rounded=0;orthogonalLoop=1;jettySize=auto;html=1;exitX=1;exitY=0.5;exitDx=0;exitDy=0;" parent="1" source="dpm7BbhjtCY3NDO2OxrM-24" target="dpm7BbhjtCY3NDO2OxrM-25" edge="1">
          <mxGeometry relative="1" as="geometry" />
        </mxCell>
        <mxCell id="dpm7BbhjtCY3NDO2OxrM-24" value="infer:deduce" style="rounded=1;whiteSpace=wrap;html=1;arcSize=50;fillColor=#bac8d3;strokeColor=#23445d;" parent="1" name="infer:deduce" vertex="1">
          <mxGeometry x="1110" y="370" width="100" height="50" as="geometry" />
        </mxCell>
        <mxCell id="dpm7BbhjtCY3NDO2OxrM-25" value="symbol:text&#xa;possible diagnosis&#xa;ranked by likelihood" style="rectangle;fillColor=#dae8fc;strokeColor=#6c8ebf;" parent="1" name="symbol" vertex="1">
          <mxGeometry x="1260" y="370" width="100" height="50" as="geometry" />
        </mxCell>
        <mxCell id="dpm7BbhjtCY3NDO2OxrM-27" style="edgeStyle=orthogonalEdgeStyle;rounded=0;orthogonalLoop=1;jettySize=auto;html=1;exitX=1;exitY=0.5;exitDx=0;exitDy=0;entryX=0.5;entryY=1;entryDx=0;entryDy=0;" parent="1" source="dpm7BbhjtCY3NDO2OxrM-26" target="dpm7BbhjtCY3NDO2OxrM-18" edge="1">
          <mxGeometry relative="1" as="geometry" />
        </mxCell>
        <mxCell id="dpm7BbhjtCY3NDO2OxrM-26" value="model&#xa;Fuzzy Rules with&#xa;weights" style="shape=hexagon;perimeter=hexagonPerimeter2;fillColor=#b0e3e6;strokeColor=#0e8088;" parent="1" name="model" vertex="1">
          <mxGeometry x="580" y="550" width="120" height="50" as="geometry" />
        </mxCell>
        <mxCell id="dpm7BbhjtCY3NDO2OxrM-35" style="edgeStyle=orthogonalEdgeStyle;rounded=0;orthogonalLoop=1;jettySize=auto;html=1;entryX=0.5;entryY=1;entryDx=0;entryDy=0;" parent="1" source="dpm7BbhjtCY3NDO2OxrM-34" target="dpm7BbhjtCY3NDO2OxrM-26" edge="1">
          <mxGeometry relative="1" as="geometry" />
        </mxCell>
        <mxCell id="dpm7BbhjtCY3NDO2OxrM-34" value="generate:engineer" style="rounded=1;whiteSpace=wrap;html=1;arcSize=50;fillColor=#e1d5e7;strokeColor=#9673a6;" parent="1" name="generate:engineer" vertex="1">
          <mxGeometry x="590" y="650" width="100" height="50" as="geometry" />
        </mxCell>
        <mxCell id="dpm7BbhjtCY3NDO2OxrM-36" value="data:text&#xa;fuzzy rules" style="rectangle;fillColor=#fff2cc;strokeColor=#d6b656;" parent="1" name="data" vertex="1">
          <mxGeometry x="590" y="760" width="100" height="50" as="geometry" />
        </mxCell>
        <mxCell id="dpm7BbhjtCY3NDO2OxrM-40" style="edgeStyle=orthogonalEdgeStyle;rounded=0;orthogonalLoop=1;jettySize=auto;html=1;exitX=0.5;exitY=1;exitDx=0;exitDy=0;entryX=0.5;entryY=0;entryDx=0;entryDy=0;" parent="1" source="dpm7BbhjtCY3NDO2OxrM-38" target="dpm7BbhjtCY3NDO2OxrM-39" edge="1">
          <mxGeometry relative="1" as="geometry" />
        </mxCell>
        <mxCell id="dpm7BbhjtCY3NDO2OxrM-38" value="data:text&#xa;medical knowledge" style="rectangle;fillColor=#fff2cc;strokeColor=#d6b656;" parent="1" name="data" vertex="1">
          <mxGeometry x="940" y="550" width="100" height="50" as="geometry" />
        </mxCell>
        <mxCell id="dpm7BbhjtCY3NDO2OxrM-42" style="edgeStyle=orthogonalEdgeStyle;rounded=0;orthogonalLoop=1;jettySize=auto;html=1;entryX=0.5;entryY=0;entryDx=0;entryDy=0;" parent="1" source="dpm7BbhjtCY3NDO2OxrM-39" target="dpm7BbhjtCY3NDO2OxrM-41" edge="1">
          <mxGeometry relative="1" as="geometry" />
        </mxCell>
        <mxCell id="dpm7BbhjtCY3NDO2OxrM-39" value="transform:embed" style="rounded=1;whiteSpace=wrap;html=1;arcSize=50;fillColor=#f8cecc;strokeColor=#b85450;" parent="1" name="transform" vertex="1">
          <mxGeometry x="850" y="650" width="100" height="50" as="geometry" />
        </mxCell>
        <mxCell id="dpm7BbhjtCY3NDO2OxrM-44" style="edgeStyle=orthogonalEdgeStyle;rounded=0;orthogonalLoop=1;jettySize=auto;html=1;exitX=0;exitY=0.5;exitDx=0;exitDy=0;entryX=1;entryY=0.5;entryDx=0;entryDy=0;" parent="1" source="dpm7BbhjtCY3NDO2OxrM-41" target="dpm7BbhjtCY3NDO2OxrM-43" edge="1">
          <mxGeometry relative="1" as="geometry" />
        </mxCell>
        <mxCell id="dpm7BbhjtCY3NDO2OxrM-41" value="data:text&#xa;structured&#xa;representation" style="rectangle;fillColor=#fff2cc;strokeColor=#d6b656;" parent="1" name="data" vertex="1">
          <mxGeometry x="850" y="760" width="100" height="50" as="geometry" />
        </mxCell>
        <mxCell id="dpm7BbhjtCY3NDO2OxrM-45" style="edgeStyle=orthogonalEdgeStyle;rounded=0;orthogonalLoop=1;jettySize=auto;html=1;exitX=0;exitY=0.5;exitDx=0;exitDy=0;entryX=1;entryY=0.5;entryDx=0;entryDy=0;" parent="1" source="dpm7BbhjtCY3NDO2OxrM-43" target="dpm7BbhjtCY3NDO2OxrM-36" edge="1">
          <mxGeometry relative="1" as="geometry" />
        </mxCell>
        <mxCell id="dpm7BbhjtCY3NDO2OxrM-43" value="transform:embed" style="rounded=1;whiteSpace=wrap;html=1;arcSize=50;fillColor=#f8cecc;strokeColor=#b85450;" parent="1" name="transform" vertex="1">
          <mxGeometry x="720" y="760" width="100" height="50" as="geometry" />
        </mxCell>
        <mxCell id="dyweho51H57k73bBJC51-3" value="&lt;div&gt;error&lt;/div&gt;&lt;div&gt;^&lt;/div&gt;&lt;div&gt;|&lt;/div&gt;" style="text;html=1;align=center;verticalAlign=middle;whiteSpace=wrap;rounded=0;dashed=1;fillColor=#f5f5f5;fontColor=#333333;strokeColor=#666666;strokeWidth=2;" parent="1" name="text" vertex="1">
          <mxGeometry x="623.75" y="700" width="32.5" height="60" as="geometry" />
        </mxCell>
        <mxCell id="N1L4S9k5fs8rax183tJY-1" value="&lt;div&gt;error&lt;/div&gt;&lt;div&gt;--&amp;gt;&lt;/div&gt;" style="text;html=1;align=center;verticalAlign=middle;whiteSpace=wrap;rounded=0;dashed=1;fillColor=#f5f5f5;fontColor=#333333;strokeColor=#666666;strokeWidth=2;" name="text" vertex="1" parent="1">
          <mxGeometry x="870" y="450" width="67.5" height="30" as="geometry" />
        </mxCell>
      </root>
    </mxGraphModel>
  </diagram>
  <diagram name="Copy of Page-1" id="vlBFJr-5Z42bPvEfbI_2">
    <mxGraphModel dx="1429" dy="856" grid="1" gridSize="10" guides="1" tooltips="1" connect="1" arrows="1" fold="1" page="1" pageScale="1" pageWidth="3300" pageHeight="4681" math="0" shadow="0">
      <root>
        <mxCell id="nfHeVfSKLssmu501w1cP-0" />
        <mxCell id="nfHeVfSKLssmu501w1cP-1" parent="nfHeVfSKLssmu501w1cP-0" />
        <mxCell id="nfHeVfSKLssmu501w1cP-2" style="edgeStyle=orthogonalEdgeStyle;rounded=0;orthogonalLoop=1;jettySize=auto;html=1;exitX=0;exitY=0.5;exitDx=0;exitDy=0;entryX=1;entryY=0.5;entryDx=0;entryDy=0;" edge="1" parent="nfHeVfSKLssmu501w1cP-1" source="nfHeVfSKLssmu501w1cP-3" target="nfHeVfSKLssmu501w1cP-7">
          <mxGeometry relative="1" as="geometry" />
        </mxCell>
        <mxCell id="nfHeVfSKLssmu501w1cP-3" value="data:text&#xa;symptoms" style="rectangle;fillColor=#fff2cc;strokeColor=#d6b656;" name="data" vertex="1" parent="nfHeVfSKLssmu501w1cP-1">
          <mxGeometry x="1220" y="110" width="100" height="50" as="geometry" />
        </mxCell>
        <mxCell id="nfHeVfSKLssmu501w1cP-4" style="edgeStyle=orthogonalEdgeStyle;rounded=0;orthogonalLoop=1;jettySize=auto;html=1;exitX=0;exitY=0.5;exitDx=0;exitDy=0;entryX=1;entryY=0.5;entryDx=0;entryDy=0;" edge="1" parent="nfHeVfSKLssmu501w1cP-1" source="nfHeVfSKLssmu501w1cP-5" target="nfHeVfSKLssmu501w1cP-9">
          <mxGeometry relative="1" as="geometry" />
        </mxCell>
        <mxCell id="nfHeVfSKLssmu501w1cP-5" value="data:text&#xa;symptoms cleaned" style="rectangle;fillColor=#fff2cc;strokeColor=#d6b656;" name="data" vertex="1" parent="nfHeVfSKLssmu501w1cP-1">
          <mxGeometry x="940" y="200" width="100" height="50" as="geometry" />
        </mxCell>
        <mxCell id="nfHeVfSKLssmu501w1cP-6" style="edgeStyle=orthogonalEdgeStyle;rounded=0;orthogonalLoop=1;jettySize=auto;html=1;exitX=0.5;exitY=1;exitDx=0;exitDy=0;entryX=1;entryY=0.5;entryDx=0;entryDy=0;" edge="1" parent="nfHeVfSKLssmu501w1cP-1" source="nfHeVfSKLssmu501w1cP-7" target="nfHeVfSKLssmu501w1cP-5">
          <mxGeometry relative="1" as="geometry" />
        </mxCell>
        <mxCell id="nfHeVfSKLssmu501w1cP-7" value="transform" style="rounded=1;whiteSpace=wrap;html=1;arcSize=50;fillColor=#f8cecc;strokeColor=#b85450;" name="transform" vertex="1" parent="nfHeVfSKLssmu501w1cP-1">
          <mxGeometry x="1060" y="110" width="100" height="50" as="geometry" />
        </mxCell>
        <mxCell id="nfHeVfSKLssmu501w1cP-8" style="edgeStyle=orthogonalEdgeStyle;rounded=0;orthogonalLoop=1;jettySize=auto;html=1;exitX=0;exitY=0.5;exitDx=0;exitDy=0;entryX=1;entryY=0.5;entryDx=0;entryDy=0;" edge="1" parent="nfHeVfSKLssmu501w1cP-1" source="nfHeVfSKLssmu501w1cP-9" target="nfHeVfSKLssmu501w1cP-11">
          <mxGeometry relative="1" as="geometry" />
        </mxCell>
        <mxCell id="nfHeVfSKLssmu501w1cP-9" value="transform" style="rounded=1;whiteSpace=wrap;html=1;arcSize=50;fillColor=#f8cecc;strokeColor=#b85450;" name="transform" vertex="1" parent="nfHeVfSKLssmu501w1cP-1">
          <mxGeometry x="770" y="200" width="100" height="50" as="geometry" />
        </mxCell>
        <mxCell id="nfHeVfSKLssmu501w1cP-10" style="edgeStyle=orthogonalEdgeStyle;rounded=0;orthogonalLoop=1;jettySize=auto;html=1;exitX=0.5;exitY=1;exitDx=0;exitDy=0;entryX=0.5;entryY=0;entryDx=0;entryDy=0;" edge="1" parent="nfHeVfSKLssmu501w1cP-1" source="nfHeVfSKLssmu501w1cP-11" target="nfHeVfSKLssmu501w1cP-13">
          <mxGeometry relative="1" as="geometry" />
        </mxCell>
        <mxCell id="nfHeVfSKLssmu501w1cP-11" value="data:text&#xa;tokens" style="rectangle;fillColor=#fff2cc;strokeColor=#d6b656;" name="data" vertex="1" parent="nfHeVfSKLssmu501w1cP-1">
          <mxGeometry x="590" y="200" width="100" height="50" as="geometry" />
        </mxCell>
        <mxCell id="nfHeVfSKLssmu501w1cP-12" style="edgeStyle=orthogonalEdgeStyle;rounded=0;orthogonalLoop=1;jettySize=auto;html=1;exitX=0.5;exitY=1;exitDx=0;exitDy=0;entryX=0.5;entryY=0;entryDx=0;entryDy=0;" edge="1" parent="nfHeVfSKLssmu501w1cP-1" source="nfHeVfSKLssmu501w1cP-13" target="nfHeVfSKLssmu501w1cP-16">
          <mxGeometry relative="1" as="geometry" />
        </mxCell>
        <mxCell id="nfHeVfSKLssmu501w1cP-13" value="transform:embed" style="rounded=1;whiteSpace=wrap;html=1;arcSize=50;fillColor=#f8cecc;strokeColor=#b85450;" name="transform" vertex="1" parent="nfHeVfSKLssmu501w1cP-1">
          <mxGeometry x="590" y="290" width="100" height="50" as="geometry" />
        </mxCell>
        <mxCell id="nfHeVfSKLssmu501w1cP-14" style="edgeStyle=orthogonalEdgeStyle;rounded=0;orthogonalLoop=1;jettySize=auto;html=1;exitX=1;exitY=0.5;exitDx=0;exitDy=0;entryX=0;entryY=0.5;entryDx=0;entryDy=0;" edge="1" parent="nfHeVfSKLssmu501w1cP-1" source="nfHeVfSKLssmu501w1cP-16" target="nfHeVfSKLssmu501w1cP-18">
          <mxGeometry relative="1" as="geometry" />
        </mxCell>
        <mxCell id="nfHeVfSKLssmu501w1cP-15" style="edgeStyle=orthogonalEdgeStyle;rounded=0;orthogonalLoop=1;jettySize=auto;html=1;exitX=0.5;exitY=1;exitDx=0;exitDy=0;entryX=0;entryY=0.5;entryDx=0;entryDy=0;" edge="1" parent="nfHeVfSKLssmu501w1cP-1" source="nfHeVfSKLssmu501w1cP-16" target="nfHeVfSKLssmu501w1cP-19">
          <mxGeometry relative="1" as="geometry" />
        </mxCell>
        <mxCell id="nfHeVfSKLssmu501w1cP-16" value="data:text&#xa;feature vectors &#xa;symptoms" style="rectangle;fillColor=#fff2cc;strokeColor=#d6b656;" name="data" vertex="1" parent="nfHeVfSKLssmu501w1cP-1">
          <mxGeometry x="590" y="390" width="100" height="50" as="geometry" />
        </mxCell>
        <mxCell id="nfHeVfSKLssmu501w1cP-17" style="edgeStyle=orthogonalEdgeStyle;rounded=0;orthogonalLoop=1;jettySize=auto;html=1;exitX=1;exitY=0.5;exitDx=0;exitDy=0;entryX=0;entryY=0.5;entryDx=0;entryDy=0;" edge="1" parent="nfHeVfSKLssmu501w1cP-1" source="nfHeVfSKLssmu501w1cP-18" target="nfHeVfSKLssmu501w1cP-21">
          <mxGeometry relative="1" as="geometry" />
        </mxCell>
        <mxCell id="nfHeVfSKLssmu501w1cP-18" value="generate:train" style="rounded=1;whiteSpace=wrap;html=1;arcSize=50;fillColor=#e1d5e7;strokeColor=#9673a6;" name="generate:train" vertex="1" parent="nfHeVfSKLssmu501w1cP-1">
          <mxGeometry x="770" y="310" width="100" height="50" as="geometry" />
        </mxCell>
        <mxCell id="mfKGp3Zl-ja2dy2nQpEN-0" style="edgeStyle=orthogonalEdgeStyle;rounded=0;orthogonalLoop=1;jettySize=auto;html=1;exitX=1;exitY=0.5;exitDx=0;exitDy=0;entryX=0;entryY=0.5;entryDx=0;entryDy=0;" edge="1" parent="nfHeVfSKLssmu501w1cP-1" source="nfHeVfSKLssmu501w1cP-19" target="nfHeVfSKLssmu501w1cP-23">
          <mxGeometry relative="1" as="geometry" />
        </mxCell>
        <mxCell id="nfHeVfSKLssmu501w1cP-19" value="infer:deduce" style="rounded=1;whiteSpace=wrap;html=1;arcSize=50;fillColor=#bac8d3;strokeColor=#23445d;" name="infer:deduce" vertex="1" parent="nfHeVfSKLssmu501w1cP-1">
          <mxGeometry x="770" y="440" width="100" height="50" as="geometry" />
        </mxCell>
        <mxCell id="nfHeVfSKLssmu501w1cP-20" style="edgeStyle=orthogonalEdgeStyle;rounded=0;orthogonalLoop=1;jettySize=auto;html=1;entryX=0;entryY=0.5;entryDx=0;entryDy=0;" edge="1" parent="nfHeVfSKLssmu501w1cP-1" source="nfHeVfSKLssmu501w1cP-21" target="nfHeVfSKLssmu501w1cP-25">
          <mxGeometry relative="1" as="geometry">
            <Array as="points">
              <mxPoint x="1070" y="335" />
              <mxPoint x="1070" y="395" />
            </Array>
          </mxGeometry>
        </mxCell>
        <mxCell id="nfHeVfSKLssmu501w1cP-21" value="model:semantic&#xa;Support Vector &#xa;Machine" style="shape=hexagon;perimeter=hexagonPerimeter2;fillColor=#b0e3e6;strokeColor=#0e8088;" name="model" vertex="1" parent="nfHeVfSKLssmu501w1cP-1">
          <mxGeometry x="930" y="310" width="120" height="50" as="geometry" />
        </mxCell>
        <mxCell id="nfHeVfSKLssmu501w1cP-22" style="edgeStyle=orthogonalEdgeStyle;rounded=0;orthogonalLoop=1;jettySize=auto;html=1;entryX=0;entryY=0.5;entryDx=0;entryDy=0;" edge="1" parent="nfHeVfSKLssmu501w1cP-1" source="nfHeVfSKLssmu501w1cP-23" target="nfHeVfSKLssmu501w1cP-25">
          <mxGeometry relative="1" as="geometry">
            <Array as="points">
              <mxPoint x="1070" y="465" />
              <mxPoint x="1070" y="395" />
            </Array>
          </mxGeometry>
        </mxCell>
        <mxCell id="nfHeVfSKLssmu501w1cP-23" value="data&#xa;possible diagnosis&#xa;with likelihood" style="rectangle;fillColor=#fff2cc;strokeColor=#d6b656;" name="data" vertex="1" parent="nfHeVfSKLssmu501w1cP-1">
          <mxGeometry x="940" y="440" width="100" height="50" as="geometry" />
        </mxCell>
        <mxCell id="nfHeVfSKLssmu501w1cP-24" style="edgeStyle=orthogonalEdgeStyle;rounded=0;orthogonalLoop=1;jettySize=auto;html=1;exitX=1;exitY=0.5;exitDx=0;exitDy=0;" edge="1" parent="nfHeVfSKLssmu501w1cP-1" source="nfHeVfSKLssmu501w1cP-25" target="nfHeVfSKLssmu501w1cP-26">
          <mxGeometry relative="1" as="geometry" />
        </mxCell>
        <mxCell id="nfHeVfSKLssmu501w1cP-25" value="infer:deduce" style="rounded=1;whiteSpace=wrap;html=1;arcSize=50;fillColor=#bac8d3;strokeColor=#23445d;" name="infer:deduce" vertex="1" parent="nfHeVfSKLssmu501w1cP-1">
          <mxGeometry x="1110" y="370" width="100" height="50" as="geometry" />
        </mxCell>
        <mxCell id="nfHeVfSKLssmu501w1cP-26" value="symbol:text&#xa;possible diagnosis&#xa;ranked by likelihood" style="rectangle;fillColor=#dae8fc;strokeColor=#6c8ebf;" name="symbol" vertex="1" parent="nfHeVfSKLssmu501w1cP-1">
          <mxGeometry x="1260" y="370" width="100" height="50" as="geometry" />
        </mxCell>
        <mxCell id="nfHeVfSKLssmu501w1cP-27" style="edgeStyle=orthogonalEdgeStyle;rounded=0;orthogonalLoop=1;jettySize=auto;html=1;exitX=1;exitY=0.5;exitDx=0;exitDy=0;entryX=0.5;entryY=1;entryDx=0;entryDy=0;" edge="1" parent="nfHeVfSKLssmu501w1cP-1" source="nfHeVfSKLssmu501w1cP-28" target="nfHeVfSKLssmu501w1cP-19">
          <mxGeometry relative="1" as="geometry" />
        </mxCell>
        <mxCell id="nfHeVfSKLssmu501w1cP-28" value="model&#xa;Fuzzy Rules with&#xa;weights" style="shape=hexagon;perimeter=hexagonPerimeter2;fillColor=#b0e3e6;strokeColor=#0e8088;" name="model" vertex="1" parent="nfHeVfSKLssmu501w1cP-1">
          <mxGeometry x="580" y="550" width="120" height="50" as="geometry" />
        </mxCell>
        <mxCell id="nfHeVfSKLssmu501w1cP-29" style="edgeStyle=orthogonalEdgeStyle;rounded=0;orthogonalLoop=1;jettySize=auto;html=1;entryX=0.5;entryY=1;entryDx=0;entryDy=0;" edge="1" parent="nfHeVfSKLssmu501w1cP-1" source="nfHeVfSKLssmu501w1cP-30" target="nfHeVfSKLssmu501w1cP-28">
          <mxGeometry relative="1" as="geometry" />
        </mxCell>
        <mxCell id="nfHeVfSKLssmu501w1cP-30" value="generate:engineer" style="rounded=1;whiteSpace=wrap;html=1;arcSize=50;fillColor=#e1d5e7;strokeColor=#9673a6;" name="generate:engineer" vertex="1" parent="nfHeVfSKLssmu501w1cP-1" tooltip="⚠️ Node not part of any valid pattern.">
          <mxGeometry x="590" y="650" width="100" height="50" as="geometry" />
        </mxCell>
        <mxCell id="mfKGp3Zl-ja2dy2nQpEN-1" style="edgeStyle=orthogonalEdgeStyle;rounded=0;orthogonalLoop=1;jettySize=auto;html=1;exitX=0.5;exitY=0;exitDx=0;exitDy=0;entryX=0.5;entryY=1;entryDx=0;entryDy=0;" edge="1" parent="nfHeVfSKLssmu501w1cP-1" source="nfHeVfSKLssmu501w1cP-31" target="nfHeVfSKLssmu501w1cP-30">
          <mxGeometry relative="1" as="geometry" />
        </mxCell>
        <mxCell id="nfHeVfSKLssmu501w1cP-31" value="data:text&#xa;fuzzy rules" style="rectangle;fillColor=#fff2cc;strokeColor=#d6b656;" name="data" vertex="1" parent="nfHeVfSKLssmu501w1cP-1">
          <mxGeometry x="590" y="760" width="100" height="50" as="geometry" />
        </mxCell>
        <mxCell id="nfHeVfSKLssmu501w1cP-32" style="edgeStyle=orthogonalEdgeStyle;rounded=0;orthogonalLoop=1;jettySize=auto;html=1;exitX=0.5;exitY=1;exitDx=0;exitDy=0;entryX=0.5;entryY=0;entryDx=0;entryDy=0;" edge="1" parent="nfHeVfSKLssmu501w1cP-1" source="nfHeVfSKLssmu501w1cP-33" target="nfHeVfSKLssmu501w1cP-35">
          <mxGeometry relative="1" as="geometry" />
        </mxCell>
        <mxCell id="nfHeVfSKLssmu501w1cP-33" value="data:text&#xa;medical knowledge" style="rectangle;fillColor=#fff2cc;strokeColor=#d6b656;" name="data" vertex="1" parent="nfHeVfSKLssmu501w1cP-1">
          <mxGeometry x="940" y="550" width="100" height="50" as="geometry" />
        </mxCell>
        <mxCell id="nfHeVfSKLssmu501w1cP-34" style="edgeStyle=orthogonalEdgeStyle;rounded=0;orthogonalLoop=1;jettySize=auto;html=1;entryX=0.5;entryY=0;entryDx=0;entryDy=0;" edge="1" parent="nfHeVfSKLssmu501w1cP-1" source="nfHeVfSKLssmu501w1cP-35" target="nfHeVfSKLssmu501w1cP-37">
          <mxGeometry relative="1" as="geometry" />
        </mxCell>
        <mxCell id="nfHeVfSKLssmu501w1cP-35" value="transform:embed" style="rounded=1;whiteSpace=wrap;html=1;arcSize=50;fillColor=#f8cecc;strokeColor=#b85450;" name="transform" vertex="1" parent="nfHeVfSKLssmu501w1cP-1">
          <mxGeometry x="850" y="650" width="100" height="50" as="geometry" />
        </mxCell>
        <mxCell id="nfHeVfSKLssmu501w1cP-36" style="edgeStyle=orthogonalEdgeStyle;rounded=0;orthogonalLoop=1;jettySize=auto;html=1;exitX=0;exitY=0.5;exitDx=0;exitDy=0;entryX=1;entryY=0.5;entryDx=0;entryDy=0;" edge="1" parent="nfHeVfSKLssmu501w1cP-1" source="nfHeVfSKLssmu501w1cP-37" target="nfHeVfSKLssmu501w1cP-39">
          <mxGeometry relative="1" as="geometry" />
        </mxCell>
        <mxCell id="nfHeVfSKLssmu501w1cP-37" value="data:text&#xa;structured&#xa;representation" style="rectangle;fillColor=#fff2cc;strokeColor=#d6b656;" name="data" vertex="1" parent="nfHeVfSKLssmu501w1cP-1">
          <mxGeometry x="850" y="760" width="100" height="50" as="geometry" />
        </mxCell>
        <mxCell id="nfHeVfSKLssmu501w1cP-38" style="edgeStyle=orthogonalEdgeStyle;rounded=0;orthogonalLoop=1;jettySize=auto;html=1;exitX=0;exitY=0.5;exitDx=0;exitDy=0;entryX=1;entryY=0.5;entryDx=0;entryDy=0;" edge="1" parent="nfHeVfSKLssmu501w1cP-1" source="nfHeVfSKLssmu501w1cP-39" target="nfHeVfSKLssmu501w1cP-31">
          <mxGeometry relative="1" as="geometry" />
        </mxCell>
        <mxCell id="nfHeVfSKLssmu501w1cP-39" value="transform:embed" style="rounded=1;whiteSpace=wrap;html=1;arcSize=50;fillColor=#f8cecc;strokeColor=#b85450;" name="transform" vertex="1" parent="nfHeVfSKLssmu501w1cP-1">
          <mxGeometry x="720" y="760" width="100" height="50" as="geometry" />
        </mxCell>
        <mxCell id="LAcNtgW07T_ZMoEbThTo-0" value="error" style="text;html=1;align=center;verticalAlign=middle;whiteSpace=wrap;rounded=0;dashed=1;fillColor=#f5f5f5;fontColor=#333333;strokeColor=#666666;strokeWidth=2;" name="text" vertex="1" parent="nfHeVfSKLssmu501w1cP-1">
          <mxGeometry x="512.5" y="660" width="67.5" height="30" as="geometry" />
        </mxCell>
      </root>
    </mxGraphModel>
  </diagram>
</mxfile>
